<?xml version="1.0" encoding="utf-8"?>
<!-- Generator: Adobe Illustrator 16.0.0, SVG Export Plug-In . SVG Version: 6.00 Build 0)  -->
<!DOCTYPE svg PUBLIC "-//W3C//DTD SVG 1.1//EN" "http://www.w3.org/Graphics/SVG/1.1/DTD/svg11.dtd">
<svg version="1.1" id="Capa_1" xmlns="http://www.w3.org/2000/svg" xmlns:xlink="http://www.w3.org/1999/xlink" x="0px" y="0px"
	 width="20px" height="20px" viewBox="490 490 20 20" enable-background="new 490 490 20 20" xml:space="preserve">
<g>
	<g>
		<path d="M493.554,490.398c-0.185,0.073-0.32,0.234-0.36,0.43c-0.041,0.194,0.02,0.396,0.161,0.537l3.046,3.047l-0.352,1.638
			l-1.638,0.352l-3.047-3.046c-0.141-0.141-0.342-0.201-0.537-0.161c-0.195,0.041-0.356,0.176-0.43,0.361
			c-0.83,2.092-0.337,4.471,1.253,6.062c0.766,0.766,1.728,1.292,2.781,1.521c0.901,0.195,1.833,0.168,2.717-0.078l8.13,8.131
			c0.522,0.522,1.217,0.81,1.955,0.81c0.739,0,1.434-0.287,1.956-0.81c0.521-0.522,0.81-1.217,0.81-1.955
			c0-0.739-0.288-1.434-0.81-1.955l-8.131-8.131c0.246-0.883,0.273-1.815,0.078-2.716c-0.229-1.054-0.755-2.016-1.521-2.782
			C498.026,490.06,495.646,489.568,493.554,490.398z"/>
	</g>
</g>
</svg>
