<svg width="70" height="70" viewBox="0 0 70 70" fill="none" xmlns="http://www.w3.org/2000/svg">
<path fill-rule="evenodd" clip-rule="evenodd" d="M0.20309 9.92608C-0.484057 13.5582 0.572776 17.4635 3.36935 20.2598C6.87317 23.7634 12.1167 24.5348 16.384 22.5741L21.0209 27.2107H27.1968L26.9557 20.7661L22.576 16.3827C24.5368 12.1158 23.7653 6.87251 20.2616 3.36907C17.4649 0.572755 13.5594 -0.483962 9.92692 0.203028C6.1137 0.922209 8.99873 2.93112 9.40862 3.34099L14.3148 8.24676C16.0304 9.96238 16.1028 12.7225 14.5278 14.5266C12.7236 16.1016 9.96315 16.0293 8.24747 14.3138L3.34132 9.40786C2.93144 8.998 0.922366 6.11319 0.20309 9.92608Z" fill="#605F6D"/>
<path fill-rule="evenodd" clip-rule="evenodd" d="M29.9447 36.1299L32.4962 43.6673L43.9599 50.1481L47.4236 53.6114C45.4627 57.8783 46.2342 63.1216 49.7379 66.6251C52.5345 69.4215 56.4402 70.4781 60.0725 69.7911C63.8857 69.0719 61.0007 67.063 60.5908 66.6531L55.6847 61.7473C53.969 60.0317 53.8967 57.2716 55.4717 55.4674C57.2758 53.8925 60.0363 53.9648 61.752 55.6803L66.6581 60.5861C67.068 60.996 69.0771 63.8808 69.7962 60.0677C70.4834 56.4357 69.4265 52.5303 66.63 49.734C63.1261 46.2304 57.8826 45.459 53.6153 47.4197L50.0472 43.8519C48.9261 44.1491 47.6846 43.8599 46.8126 42.988C45.5107 41.6862 45.5107 39.5568 46.8126 38.255L48.9141 36.1496C47.4274 37.6362 44.9924 37.6362 43.5056 36.1496C42.3041 34.9482 42.0712 33.1282 42.8145 31.6859C41.4563 33.4537 34.9189 27.0534 34.6376 26.7721C31.8011 24.4942 24.0621 29.7174 29.9447 36.1299Z" fill="#605F6D"/>
<path fill-rule="evenodd" clip-rule="evenodd" d="M46.8133 38.2557C45.5115 39.5575 45.5115 41.6869 46.8133 42.9887C47.6853 43.8606 48.9268 44.1497 50.0479 43.8525C50.5984 43.7078 51.1168 43.4185 51.5466 42.9887L56.6095 37.9262C57.9113 36.6245 57.9113 34.495 56.6095 33.1932C55.3076 31.8915 53.178 31.8915 51.8722 33.1932L51.7959 33.2695L48.9149 36.1502L46.8133 38.2557Z" fill="#FED1A3"/>
<path fill-rule="evenodd" clip-rule="evenodd" d="M39.1868 24.2456L38.0858 25.3464L37.3987 26.3468C35.8637 28.5727 39.5162 32.9802 42.9396 31.4654L46.0175 30.6779L46.4635 27.7852L47.476 26.7727C48.9627 25.2861 48.9627 22.8514 47.476 21.3648C45.9894 19.8782 43.5544 19.8782 42.0676 21.3648L40.0747 23.3577L39.1868 24.2456Z" fill="#FED1A3"/>
<path fill-rule="evenodd" clip-rule="evenodd" d="M36.6593 15.9567L32.6774 19.9384C29.9249 22.6906 34.1883 27.2106 38.0859 25.3464L41.2843 24.3902L42.0678 21.3648C43.5545 19.8782 43.5545 17.4434 42.0678 15.9568C40.581 14.47 38.146 14.47 36.6593 15.9567Z" fill="#FED1A3"/>
<path fill-rule="evenodd" clip-rule="evenodd" d="M20.2457 31.0555C20.4266 34.0446 19.0363 37.066 14.9137 41.1843L10.4375 45.6601L12.9127 55.5157L25.3166 60.538L32.493 53.3622C35.1812 50.6742 35.7034 51.2528 38.8778 51.7068C40.3002 51.9117 42.3294 51.1523 43.9607 50.1479L29.9455 36.13C31.6612 33.4179 31.834 30.2922 30.2268 28.3354C30.2067 28.3113 30.2228 28.2993 30.2388 28.3153C30.9581 29.0345 32.6698 30.7461 32.726 30.8023C35.1087 33.1045 40.2279 35.0571 42.8156 31.6863C42.8558 31.6139 42.896 31.5376 42.9401 31.4653C43.3299 30.4167 41.4694 28.7332 39.5608 26.8208L38.0862 25.3462L32.6777 19.9383L31.6812 18.9418C30.8856 18.1463 29.5757 18.1463 28.776 18.9458L26.9558 20.7658L22.2707 25.4506C21.7563 25.9649 21.3385 26.5635 21.0211 27.2104C20.4266 28.4157 20.1694 29.7817 20.2457 31.0555Z" fill="#FFE5C1"/>
<path fill-rule="evenodd" clip-rule="evenodd" d="M17.5215 5.65524C20.8525 8.98594 21.2624 13.4417 19.6511 17.5882C19.3618 18.3234 19.7838 18.6208 20.3503 19.1872L24.2158 23.0483L24.2319 23.4903L26.9561 20.7661L22.5764 16.3827C24.5372 12.1158 23.7657 6.87251 20.262 3.36907C17.4651 0.572755 13.5597 -0.483962 9.92718 0.203028C7.57659 0.644947 7.76949 1.58112 8.36408 2.32838C11.643 2.04728 15.0221 3.16016 17.5215 5.65524Z" fill="#53515E"/>
<path fill-rule="evenodd" clip-rule="evenodd" d="M36.1372 23.3974L38.086 25.346L39.187 24.2452L40.075 23.3573L42.0679 21.3644C43.5546 19.8778 43.5546 17.443 42.0679 15.9565C41.4572 15.3498 40.6938 14.9922 39.8982 14.8798C41.0715 16.3784 40.9671 18.564 39.5928 19.9422L37.5998 21.931L36.1372 23.3974Z" fill="#FFBC85"/>
<path fill-rule="evenodd" clip-rule="evenodd" d="M44.8887 25.1052L41.3608 28.633C42.4538 29.7781 43.2011 30.7665 42.9399 31.4657C43.0966 31.2086 43.2856 30.9635 43.5065 30.7426L47.4764 26.7728C48.9631 25.2862 48.9631 22.8513 47.4764 21.3646C46.8858 20.778 46.1464 20.4203 45.379 20.2999C46.3514 21.7782 46.1906 23.8034 44.8887 25.1052Z" fill="#FFBC85"/>
<path fill-rule="evenodd" clip-rule="evenodd" d="M46.106 41.9481C46.2667 42.3257 46.5038 42.6793 46.8132 42.9886C47.6852 43.8605 48.9267 44.1497 50.0478 43.8525C50.5983 43.7078 51.1167 43.4185 51.5465 42.9886L56.6094 37.9261C57.9112 36.6243 57.9112 34.4948 56.6094 33.193C56.1392 32.7228 55.5647 32.4216 54.9579 32.293C55.4803 33.5144 55.2472 34.993 54.2507 35.9854L49.1879 41.0479C48.762 41.4778 48.2396 41.7671 47.6892 41.9118C47.1707 42.0485 46.6284 42.0605 46.106 41.9481Z" fill="#FFBC85"/>
<path fill-rule="evenodd" clip-rule="evenodd" d="M53.9573 50.7669C61.5154 48.6817 66.7268 52.7276 69.7967 60.0683C70.4838 56.4362 69.427 52.5308 66.6304 49.7344C63.1266 46.2308 57.883 45.4594 53.6158 47.4201L50.0477 43.8523C48.9266 44.1495 47.6851 43.8604 46.8131 42.9884C46.5037 42.6791 46.2666 42.3255 46.1058 41.9479C45.5834 40.7265 45.8165 39.2478 46.8131 38.2555L48.9146 36.1501C47.4279 37.6367 44.9929 37.6367 43.5061 36.1501C43.3052 35.9493 43.1325 35.7363 42.9878 35.5072C42.2526 34.3541 42.1962 32.8876 42.815 31.6862C40.2274 35.0572 30.4473 28.3996 32.7255 30.8022L50.3369 49.3445C52.2334 51.3414 51.5665 51.4258 53.9573 50.7669Z" fill="#53515E"/>
<path fill-rule="evenodd" clip-rule="evenodd" d="M1.64554 54.4513L16.5246 69.3291C16.8982 69.7028 17.3684 69.9277 17.8546 70H18.5979C19.0882 69.9277 19.5543 69.7028 19.9279 69.3291L25.3163 63.9413C26.2525 63.0051 26.2525 61.4743 25.3163 60.5383L10.4372 45.6604C9.50096 44.7242 7.97013 44.7242 7.03388 45.6604L1.64554 51.0482C0.709298 51.9843 0.709298 53.5152 1.64554 54.4513Z" fill="#6BD9E7"/>
<path fill-rule="evenodd" clip-rule="evenodd" d="M12.2451 65.05L16.5244 69.3289C16.8981 69.7026 17.3683 69.9276 17.8544 69.9999H18.5978C19.0881 69.9276 19.5541 69.7026 19.9278 69.3289L25.3162 63.9411C26.2524 63.005 26.2524 61.4742 25.3162 60.5381L21.0329 56.2551C21.9691 57.1913 21.9691 58.7221 21.0329 59.6581L15.6445 65.0459C15.2709 65.4196 14.8048 65.6446 14.3185 65.7209H13.5712C13.085 65.6446 12.6188 65.4196 12.2451 65.05Z" fill="#00C7DD"/>
<path fill-rule="evenodd" clip-rule="evenodd" d="M29.19 50.0636L22.0137 57.2396L25.3165 60.5383L32.4929 53.3624C35.181 50.6744 35.7033 51.253 38.8776 51.707C40.3001 51.9119 42.3292 51.1524 43.9606 50.148L40.6617 46.8453C40.2478 47.0985 39.8098 47.3396 39.3638 47.5485C38.0419 48.1713 36.6396 48.557 35.5748 48.4043C32.4044 47.9503 31.8781 47.3758 29.19 50.0636Z" fill="#FED1A3"/>
<path fill-rule="evenodd" clip-rule="evenodd" d="M41.8068 32.6989C41.0635 34.1373 41.2925 35.9574 42.4979 37.1587C43.9846 38.6493 46.4195 38.6493 47.9064 37.1587L50.6627 36.2226L51.8721 33.1931C53.3629 31.7064 53.3629 29.2716 51.8721 27.785C50.3855 26.2984 47.9505 26.2984 46.4637 27.785L42.4978 31.7507C42.2728 31.9756 42.084 32.2167 41.9273 32.478C41.8992 32.5543 41.8591 32.6266 41.8068 32.6989Z" fill="#FED1A3"/>
<path fill-rule="evenodd" clip-rule="evenodd" d="M49.5295 26.6842C50.4738 28.1627 50.301 30.1596 49.0112 31.4494L45.0453 35.419C44.2095 36.2507 43.0764 36.6204 41.9795 36.5159C42.1241 36.7449 42.297 36.9619 42.4978 37.1588C43.9845 38.6493 46.4194 38.6493 47.9062 37.1588L51.8722 33.1931C53.363 31.7065 53.363 29.2716 51.8722 27.785C51.2211 27.1302 50.3893 26.7646 49.5295 26.6842Z" fill="#FFBC85"/>
<path d="M41.3604 28.6328C40.392 29.4605 39.1986 29.7658 37.9651 29.7216C37.9129 29.7176 37.8646 29.7176 37.8124 29.7135C35.6225 29.5809 33.3242 28.3635 31.9459 27.0297C31.9298 27.0136 31.7209 26.8046 31.4276 26.5113C31.074 26.1617 31.0258 26.1056 30.5959 25.6797C30.3348 25.3542 29.891 25.6638 29.7533 25.7842C29.366 26.1231 28.8868 26.9162 28.9832 27.523C28.7818 27.9208 28.8466 28.4191 29.1787 28.7512C29.8997 29.4721 30.2808 30.482 30.2808 31.6716C30.2808 33.5429 29.3265 35.6143 27.7281 37.2125C27.3152 37.6255 27.3145 38.2956 27.7265 38.7096C27.9329 38.9169 28.2036 39.0206 28.4743 39.0206C28.7443 39.0206 29.0144 38.9175 29.2205 38.7114C31.237 36.695 32.3935 34.1292 32.3935 31.6718C32.3935 31.2128 32.3522 30.7702 32.2728 30.3459C32.5327 30.608 32.71 30.7869 32.7255 30.8024C35.1082 33.1046 40.2273 35.0572 42.8151 31.6864C42.8553 31.614 42.8955 31.5377 42.9396 31.4654C43.2006 30.7662 42.4533 29.7779 41.3604 28.6328Z" fill="#FED1A3"/>
</svg>
