<svg width="70" height="70" viewBox="0 0 70 70" fill="none" xmlns="http://www.w3.org/2000/svg">
<path d="M35 70C54.33 70 70 54.33 70 35C70 15.67 54.33 0 35 0C15.67 0 0 15.67 0 35C0 54.33 15.67 70 35 70Z" fill="#FDBD40"/>
<path d="M35 70C54.33 70 70 54.33 70 35C70 15.67 54.33 0 35 0C15.67 0 0 15.67 0 35C0 54.33 15.67 70 35 70Z" fill="#FDBD40"/>
<path d="M34.9999 66.3793C34.3334 66.3793 33.793 65.8389 33.793 65.1724C33.793 64.5059 34.3334 63.9655 34.9999 63.9655C50.9893 63.9469 63.9468 50.9894 63.9654 35C63.9654 34.3335 64.5058 33.7931 65.1723 33.7931C65.8388 33.7931 66.3792 34.3335 66.3792 35C66.3599 52.3223 52.3222 66.36 34.9999 66.3793Z" fill="#FCF05A"/>
<path d="M4.8275 36.2069C4.16099 36.2069 3.62061 35.6665 3.62061 35C3.63992 17.6777 17.6776 3.63998 34.9999 3.62067C35.6664 3.62067 36.2068 4.16105 36.2068 4.82756C36.2068 5.49407 35.6664 6.03446 34.9999 6.03446C19.0104 6.05302 6.05296 19.0104 6.0344 35C6.0344 35.6665 5.49401 36.2069 4.8275 36.2069Z" fill="#FCF05A"/>
<path d="M35 18.1035C36.3331 18.1035 37.4138 19.1841 37.4138 20.5172C37.4138 21.8504 36.3331 22.931 35 22.931C33.6668 22.931 32.5862 21.8504 32.5862 20.5172C32.5862 19.1841 33.6668 18.1035 35 18.1035Z" fill="#5F79BA"/>
<path d="M37.4137 48.2758V27.7586H27.7585V30.1724C27.7585 30.8389 28.2989 31.3793 28.9654 31.3793H32.5861V51.8965H42.2413V49.4827C42.2413 48.8162 41.7009 48.2758 41.0344 48.2758H37.4137Z" fill="#5F79BA"/>
</svg>
