<svg width="70" height="70" viewBox="0 0 70 70" fill="none" xmlns="http://www.w3.org/2000/svg">
<path d="M11.3591 2.15171L18.9999 9.74082C19.97 10.7044 19.97 12.2666 18.9999 13.2301L13.32 18.8717C12.3499 19.8353 10.7771 19.8353 9.80697 18.8717L2.16618 11.2826C1.64285 10.7628 0.752683 11.0031 0.559014 11.7126C-0.891511 17.0263 0.48028 22.9409 4.68072 27.113C9.25198 31.6532 15.9006 32.8659 21.5864 30.7598L54.6539 66.676C58.0492 70.3639 63.8559 70.4927 67.4137 66.959C70.9882 63.4086 70.8378 57.608 67.084 54.245L30.8414 21.776C33.139 16.0567 31.9588 9.27953 27.2971 4.64914C23.0967 0.47704 17.1418 -0.885497 11.792 0.555243C11.0777 0.747606 10.8357 1.6319 11.3591 2.15171ZM63.6273 60.6968C63.6273 62.1479 62.4429 63.3242 60.982 63.3242C59.521 63.3242 58.3367 62.1479 58.3367 60.6968C58.3367 59.2456 59.521 58.0693 60.982 58.0693C62.4429 58.0693 63.6273 59.2456 63.6273 60.6968Z" fill="#605F6D"/>
<path d="M27.8305 18.4665L31.0152 21.3197C33.0729 15.6992 31.8356 9.15704 27.2973 4.64909C26.9566 4.31071 26.6031 3.9931 26.2407 3.69177C29.2342 8.09294 29.7638 13.654 27.8305 18.4665Z" fill="#53515E"/>
<path d="M51.6187 63.379L54.6542 66.676C58.0495 70.3639 63.8562 70.4927 67.4139 66.959C70.9885 63.4086 70.838 57.6078 67.0843 54.245L65.8523 53.1414C67.7428 56.471 67.2821 60.7898 64.4029 63.6495C60.8451 67.183 55.014 67.067 51.6187 63.379Z" fill="#53515E"/>
<path d="M21.5867 30.7596L18.5756 27.4501C13.3142 29.3992 7.22951 28.5039 2.72803 24.762C3.29183 25.5907 3.94208 26.3791 4.68083 27.1128C9.2521 31.6532 15.9009 32.8659 21.5867 30.7596Z" fill="#53515E"/>
<path d="M41.8613 31.6481L39.0502 34.4403L37.1671 32.57C36.0003 31.411 34.1085 31.411 32.9417 32.57L30.3687 35.1255C31.0167 36.7831 31.014 38.6336 30.3604 40.2892L36.5812 47.046C37.9414 46.4162 39.4601 46.2354 40.9114 46.5036C41.7749 46.6633 42.662 46.3916 43.283 45.7748L44.7595 44.3082C45.9263 43.1492 45.9263 41.2703 44.7595 40.1113C43.7196 39.0784 43.7196 37.4036 44.7595 36.3707L45.8848 35.2529L41.8613 31.6481Z" fill="#53515E"/>
<path d="M69.6252 8.70701L64.7901 3.90454C64.325 3.44257 63.5425 3.56001 63.2355 4.13778L60.6326 9.03595L36.8472 32.6604L40.6736 36.461L64.4591 12.8366L69.3906 10.2511C69.9723 9.94622 70.0904 9.16898 69.6252 8.70701Z" fill="#E9EBF2"/>
<path d="M69.6251 8.70687L68.4044 7.49445C68.4899 7.89927 68.3106 8.34114 67.905 8.5536L62.9736 11.1391L39.1883 34.7638L36.9589 32.5495L36.8472 32.6605L40.6736 36.4611L64.4589 12.8365L69.3904 10.251C69.9721 9.94608 70.0902 9.16884 69.6251 8.70687Z" fill="#C7CAD3"/>
<path d="M32.5917 46.4374C34.656 44.3871 37.6694 43.8569 40.2266 44.843L42.7995 42.2875C43.9663 41.1285 43.9663 39.2494 42.7995 38.0905L35.207 30.5492C34.0402 29.3902 32.1484 29.3902 30.9817 30.5492L28.4088 33.1047C29.4016 35.6447 28.8677 38.6377 26.8035 40.6881C24.7394 42.7385 21.7259 43.2687 19.1687 42.2825L5.52866 55.8306C2.26519 59.0721 2.26519 64.3274 5.52866 67.5689C8.79213 70.8104 14.0831 70.8104 17.3466 67.5689L30.9866 54.0208C29.9935 51.481 30.5274 48.4878 32.5917 46.4374Z" fill="#FFDC64"/>
<path d="M42.7995 38.0904L41.0041 36.3071C41.2556 37.2885 40.9981 38.372 40.2249 39.14L37.652 41.6955C35.095 40.7094 32.0815 41.2397 30.0172 43.2899C27.9529 45.3403 27.4189 48.3334 28.4119 50.8733L14.7719 64.4214C11.7945 67.3788 7.13018 67.6365 3.85693 65.1976C4.25845 66.0562 4.81564 66.8605 5.52866 67.5688C8.79213 70.8103 14.0831 70.8103 17.3466 67.5688L30.9866 54.0208C29.9938 51.4808 30.5277 48.4877 32.5918 46.4374C34.6561 44.387 37.6695 43.8568 40.2267 44.8429L42.7996 42.2874C43.9663 41.1284 43.9663 39.2493 42.7995 38.0904Z" fill="#FFC850"/>
<path d="M10.3581 60.0996C10.0731 60.0996 9.78798 59.9916 9.57036 59.7756C9.1354 59.3434 9.1354 58.6429 9.57036 58.2107L20.1234 47.7291C20.5585 47.2972 21.2638 47.2972 21.6989 47.7291C22.1338 48.1612 22.1338 48.8618 21.6989 49.2939L11.1459 59.7756C10.9283 59.9916 10.643 60.0996 10.3581 60.0996Z" fill="#FF6B5C"/>
<path d="M14.2575 63.9722C13.9725 63.9722 13.6874 63.8642 13.4698 63.6482C13.0348 63.2161 13.0348 62.5155 13.4698 62.0833L24.0228 51.6016C24.4579 51.1697 25.1632 51.1697 25.5983 51.6016C26.0333 52.0338 26.0333 52.7343 25.5983 53.1665L15.0453 63.6482C14.8277 63.8642 14.5425 63.9722 14.2575 63.9722Z" fill="#FF6B5C"/>
</svg>
