<?xml version="1.0" encoding="utf-8"?>
<!-- Generator: Adobe Illustrator 16.0.0, SVG Export Plug-In . SVG Version: 6.00 Build 0)  -->
<!DOCTYPE svg PUBLIC "-//W3C//DTD SVG 1.1//EN" "http://www.w3.org/Graphics/SVG/1.1/DTD/svg11.dtd">
<svg version="1.1" id="Capa_1" xmlns="http://www.w3.org/2000/svg" xmlns:xlink="http://www.w3.org/1999/xlink" x="0px" y="0px"
	 width="19.999px" height="20.001px" viewBox="-10 -10 19.999 20.001" enable-background="new -10 -10 19.999 20.001"
	 xml:space="preserve">
<g>
	<g>
		<path fill="#FFFFFF" d="M-6.446-9.603C-6.63-9.53-6.765-9.369-6.805-9.173c-0.041,0.194,0.02,0.396,0.161,0.537l3.046,3.047
			l-0.353,1.638l-1.638,0.353l-3.047-3.046c-0.142-0.142-0.343-0.201-0.537-0.161c-0.195,0.041-0.356,0.176-0.43,0.36
			c-0.83,2.093-0.337,4.472,1.253,6.063c0.766,0.766,1.728,1.292,2.78,1.521c0.901,0.195,1.833,0.168,2.718-0.078l8.129,8.132
			c0.521,0.521,1.217,0.81,1.955,0.81s1.434-0.287,1.957-0.81c0.52-0.522,0.809-1.218,0.809-1.955c0-0.739-0.287-1.435-0.809-1.955
			L1.058-2.85c0.246-0.884,0.273-1.815,0.078-2.717C0.907-6.62,0.381-7.582-0.384-8.348C-1.973-9.941-4.353-10.433-6.446-9.603z"/>
	</g>
</g>
</svg>
